<svg width="169" height="169" viewBox="0 0 169 169" fill="none" xmlns="http://www.w3.org/2000/svg"><path d="M84.3194 57.0901L92.6563 62.549C105.771 71.1252 120.64 76.4681 136.19 78.2587C122.162 71.0962 109.707 60.9469 100.029 48.7604C89.104 35.0008 74.5035 24.3657 57.8078 18.0078L41.4311 11.7732C30.9628 17.9716 21.9443 26.3521 15.0138 36.2984L39.8652 40.1189C55.6764 42.5475 71.0455 48.4197 84.3194 57.0901ZM109.113 41.5543C123.88 60.1567 145.418 72.7999 168.958 77.2148C165.152 33.9423 128.81 0 84.5441 0C74.5397 0 64.9413 1.73264 56.0317 4.92244L61.94 7.16979C80.5786 14.2671 96.8901 26.1563 109.113 41.5543ZM86.313 72.2561L77.9688 66.8045C66.0723 59.0257 52.2909 53.7626 38.1036 51.5877L8.62695 47.0567C3.78426 56.7711 0.761201 67.5512 0 78.9475H98.05C94.0192 76.9683 90.1045 74.7282 86.313 72.2561ZM100.029 120.734C109.707 108.54 122.169 98.3907 136.204 91.2354C120.647 93.0261 105.778 98.369 92.6563 106.945L84.3194 112.404C71.0455 121.075 55.6764 126.947 39.8652 129.375L15.0138 133.196C21.9443 143.142 30.9628 151.523 41.4311 157.721L57.8078 151.486C74.5035 145.128 89.104 134.493 100.029 120.734ZM109.113 127.947C96.8901 143.338 80.5786 155.227 61.94 162.324L56.0317 164.572C64.9413 167.762 74.5397 169.494 84.5441 169.494C128.81 169.494 165.152 135.552 168.958 92.2794C145.418 96.6943 123.88 109.338 109.113 127.947ZM77.9688 102.69L86.313 97.238C90.1045 94.7659 94.0192 92.5258 98.05 90.5467H0C0.761201 101.943 3.78426 112.723 8.62695 122.437L38.1036 117.914C52.2909 115.732 66.0723 110.468 77.9688 102.69Z" fill="#014751"/></svg>